<svg width="24" height="24" viewBox="0 0 24 24" fill="none" xmlns="http://www.w3.org/2000/svg">
<path d="M15.9162 2.01001C15.8744 1.96251 14.3667 2.02876 13.0547 3.475C11.7427 4.91999 11.9445 6.57749 11.9741 6.61999C12.0036 6.66248 13.8449 6.72873 15.0202 5.04749C16.1956 3.36625 15.9581 2.05876 15.9162 2.01001ZM19.995 16.6762C19.9359 16.5562 17.1335 15.1337 17.3944 12.3987C17.6553 9.66247 19.4559 8.91247 19.4843 8.83122C19.5126 8.74997 18.7495 7.84373 17.9409 7.38498C17.3472 7.06155 16.6901 6.87624 16.0172 6.84248C15.8842 6.83873 15.4227 6.72373 14.4738 6.98748C13.8485 7.16123 12.4393 7.72373 12.0516 7.74623C11.6627 7.76873 10.5058 7.09373 9.26146 6.91498C8.46515 6.75873 7.62084 7.07873 7.01653 7.32498C6.41345 7.56998 5.26637 8.26748 4.46391 10.1212C3.66145 11.9737 4.08114 14.9087 4.38145 15.8212C4.68176 16.7324 5.15068 18.2262 5.94822 19.3162C6.65715 20.5462 7.59746 21.3999 7.99007 21.6899C8.38269 21.9799 9.49038 22.1724 10.2584 21.7737C10.8762 21.3887 11.9913 21.1674 12.4319 21.1837C12.8713 21.1999 13.7378 21.3762 14.6252 21.8574C15.3279 22.1037 15.9926 22.0012 16.6584 21.7262C17.3242 21.4499 18.2879 20.4024 19.4129 18.2787C19.8399 17.2912 20.0344 16.7574 19.995 16.6762Z" fill="white"/>
</svg>
