<svg width="24" height="24" viewBox="0 0 24 24" fill="none" xmlns="http://www.w3.org/2000/svg">
<path d="M11.9559 10.356V13.807H16.7479C16.3019 16 14.4349 17.26 11.9559 17.26C10.5683 17.2409 9.244 16.6763 8.26948 15.6883C7.29496 14.7002 6.74861 13.3683 6.74861 11.9805C6.74861 10.5928 7.29496 9.26079 8.26948 8.27277C9.244 7.28475 10.5683 6.72011 11.9559 6.70101C13.1562 6.69958 14.3194 7.11609 15.2459 7.87901L17.8459 5.27901C16.7612 4.32478 15.4611 3.64799 14.0572 3.30672C12.6534 2.96546 11.1876 2.9699 9.78588 3.31967C8.38412 3.66944 7.08814 4.3541 6.00917 5.31488C4.9302 6.27567 4.10046 7.4839 3.59114 8.83589C3.08182 10.1879 2.90813 11.6433 3.08498 13.0771C3.26184 14.511 3.78395 15.8806 4.60651 17.0683C5.42908 18.256 6.52753 19.2264 7.80762 19.8963C9.08771 20.5661 10.5112 20.9153 11.9559 20.914C16.4229 20.914 20.4849 17.665 20.4849 11.98C20.478 11.4327 20.411 10.8877 20.2849 10.355L11.9559 10.356Z" fill="white"/>
</svg>
