<svg width="24" height="24" viewBox="0 0 24 24" fill="none" xmlns="http://www.w3.org/2000/svg">
<path d="M20 19V10.5C20 10.3448 19.9639 10.1916 19.8944 10.0528C19.825 9.91393 19.7242 9.79315 19.6 9.7L12.6 4.45C12.4269 4.32018 12.2164 4.25 12 4.25C11.7836 4.25 11.5731 4.32018 11.4 4.45L4.4 9.7C4.2758 9.79315 4.175 9.91393 4.10557 10.0528C4.03614 10.1916 4 10.3448 4 10.5V19C4 19.2652 4.10536 19.5196 4.29289 19.7071C4.48043 19.8946 4.73478 20 5 20H19C19.2652 20 19.5196 19.8946 19.7071 19.7071C19.8946 19.5196 20 19.2652 20 19Z" stroke="#EBB66D" stroke-width="2" stroke-linecap="round" stroke-linejoin="round"/>
</svg>
