<svg width="20" height="20" viewBox="0 0 20 20" fill="none" xmlns="http://www.w3.org/2000/svg">
<path d="M10 1.66667C7.70254 1.66667 5.83337 3.53583 5.83337 5.83333V8.33333H5.00004C4.08087 8.33333 3.33337 9.08083 3.33337 10V16.6667C3.33337 17.5858 4.08087 18.3333 5.00004 18.3333H15C15.9192 18.3333 16.6667 17.5858 16.6667 16.6667V10C16.6667 9.08083 15.9192 8.33333 15 8.33333H14.1667V5.83333C14.1667 3.53583 12.2975 1.66667 10 1.66667ZM15 10L15.0017 16.6667H5.00004V10H15ZM7.50004 8.33333V5.83333C7.50004 4.455 8.62171 3.33333 10 3.33333C11.3784 3.33333 12.5 4.455 12.5 5.83333V8.33333H7.50004Z" fill="#777789"/>
</svg>
