<svg width="80" height="80" viewBox="0 0 80 80" fill="none" xmlns="http://www.w3.org/2000/svg">
<path fill-rule="evenodd" clip-rule="evenodd" d="M18.2732 45.9194C14.7399 41.1391 13.3875 34.9897 12.8671 31.3913C14.8277 31.5853 17.3157 32.0752 19.9039 32.9315C23.5161 34.1266 27.1354 35.9738 29.7299 38.5323C32.9156 41.6737 34.7821 44.4973 35.9525 46.7591C36.8138 48.4236 37.2738 49.7081 37.6551 50.7728C37.7623 51.0722 37.8633 51.3543 37.9653 51.6225V56.2641C35.415 55.8012 32.1293 54.8824 28.8602 53.4782C24.6138 51.6542 20.6332 49.1124 18.2732 45.9194ZM32.3275 35.8981C29.1872 32.8015 24.9914 30.718 21.066 29.4193C17.1426 28.1212 13.3013 27.5456 10.737 27.5969L8.75 27.6366L8.93198 29.6156C9.18204 32.3351 10.2559 41.2965 15.2981 48.1184C18.2185 52.0695 22.8855 54.9382 27.4001 56.8774C31.3355 58.5678 38.2535 60.2725 40.0143 60.2725C41.8605 60.2717 48.6645 58.5706 52.5999 56.8802C57.1145 54.941 61.7815 52.0722 64.7019 48.1211C69.7441 41.2992 70.818 32.3378 71.068 29.6184L71.25 27.6394L69.263 27.5997C66.6987 27.5484 62.8574 28.124 58.934 29.422C55.0086 30.7208 50.8128 32.8043 47.6725 35.9009C44.199 39.3261 42.104 42.468 40.7618 45.0617C40.4782 45.6099 40.2256 46.1411 40.0006 46.6453C39.7753 46.1402 39.5224 45.6082 39.2382 45.0589C37.896 42.4652 35.801 39.3234 32.3275 35.8981ZM61.7268 45.9222C65.2601 41.1419 66.6125 34.9925 67.1329 31.394C65.1723 31.5881 62.6843 32.078 60.0961 32.9343C56.4839 34.1294 52.8646 35.9766 50.2701 38.5351C47.0844 41.6765 45.2179 44.5 44.0475 46.7619C43.1862 48.4264 42.7262 49.7109 42.3449 50.7755C42.2377 51.075 42.1367 51.3571 42.0347 51.6253V56.2668C44.585 55.804 47.8707 54.8852 51.1398 53.481C55.3862 51.657 59.3668 49.1152 61.7268 45.9222Z" fill="white"/>
</svg>
